# xmcd CD database file
#
# Track frame offsets:
#	182
#	11242
#	36152
#	60517
#	94765
#	116820
#	139935
#	169885
#	196977
#	215875
#	242340
#
# Disc length: 3626 seconds
#
# Revision: 0
# Processed by: cddbd v1.5.1PL0 Copyright (c) Steve Scherf et al.
# Submitted via: CDex 1.51
#
DISCID=9f0e280b
DTITLE=Various Artist - Flute
DYEAR=2000
DGENRE=Jazz
TTITLE0=Roland Kirk - Ain't no Sunshine
TTITLE1=Les Spann - 'Round Midnight
TTITLE2=Erix Dixon - Ja-Da
TTITLE3=Jerome Richardson - Poinciana
TTITLE4=Herbie Mann - Swing Till the Girls come Home
TTITLE5=Eric Dolphy - Spring is Here
TTITLE6=Hubert Laws - Bembe Blues
TTITLE7=Bobby Jaspar - My Old Flame
TTITLE8=Frank Strozier - Down Home
TTITLE9=James Moody - Old Folks
TTITLE10=James Clay - I Remember You
EXTD=YEAR: 2000
EXTT0=
EXTT1=
EXTT2=
EXTT3=
EXTT4=
EXTT5=
EXTT6=
EXTT7=
EXTT8=
EXTT9=
EXTT10=
PLAYORDER=
